<svg id="visual" viewBox="0 0 900 600" width="900" height="600" xmlns="http://www.w3.org/2000/svg" xmlns:xlink="http://www.w3.org/1999/xlink" version="1.1"><g stroke-width="1" stroke-linejoin="bevel"><path d="M468 312L414 326L487 385Z" fill="#297ea6" stroke="#297ea6"></path><path d="M414 326L394 396L487 385Z" fill="#205a7a" stroke="#205a7a"></path><path d="M487 385L570 310L468 312Z" fill="#246688" stroke="#246688"></path><path d="M570 310L464 224L468 312Z" fill="#00101c" stroke="#00101c"></path><path d="M468 312L464 224L414 326Z" fill="#081a28" stroke="#081a28"></path><path d="M528 522L588 396L487 385Z" fill="#0c2435" stroke="#0c2435"></path><path d="M487 385L588 396L570 310Z" fill="#246688" stroke="#246688"></path><path d="M394 396L382 482L487 385Z" fill="#277297" stroke="#277297"></path><path d="M414 326L292 400L394 396Z" fill="#297ea6" stroke="#297ea6"></path><path d="M394 396L292 400L382 482Z" fill="#0c2435" stroke="#0c2435"></path><path d="M309 269L292 400L414 326Z" fill="#0c2435" stroke="#0c2435"></path><path d="M406 190L309 269L414 326Z" fill="#15384f" stroke="#15384f"></path><path d="M464 224L406 190L414 326Z" fill="#277297" stroke="#277297"></path><path d="M382 482L528 522L487 385Z" fill="#277297" stroke="#277297"></path><path d="M406 190L289 207L309 269Z" fill="#1d4e6b" stroke="#1d4e6b"></path><path d="M309 269L221 308L292 400Z" fill="#112e42" stroke="#112e42"></path><path d="M588 396L667 292L570 310Z" fill="#0c2435" stroke="#0c2435"></path><path d="M570 310L617 195L464 224Z" fill="#277297" stroke="#277297"></path><path d="M481 77L368 135L406 190Z" fill="#205a7a" stroke="#205a7a"></path><path d="M671 434L667 292L588 396Z" fill="#0c2435" stroke="#0c2435"></path><path d="M667 292L617 195L570 310Z" fill="#277297" stroke="#277297"></path><path d="M671 467L671 434L588 396Z" fill="#205a7a" stroke="#205a7a"></path><path d="M289 207L221 308L309 269Z" fill="#00101c" stroke="#00101c"></path><path d="M406 190L368 135L289 207Z" fill="#1d4e6b" stroke="#1d4e6b"></path><path d="M481 77L406 190L464 224Z" fill="#246688" stroke="#246688"></path><path d="M628 528L671 467L588 396Z" fill="#0c2435" stroke="#0c2435"></path><path d="M528 522L628 528L588 396Z" fill="#297ea6" stroke="#297ea6"></path><path d="M390 600L506 600L528 522Z" fill="#0c2435" stroke="#0c2435"></path><path d="M528 522L589 600L628 528Z" fill="#112e42" stroke="#112e42"></path><path d="M390 600L528 522L382 482Z" fill="#277297" stroke="#277297"></path><path d="M268 531L382 482L292 400Z" fill="#081a28" stroke="#081a28"></path><path d="M332 600L390 600L382 482Z" fill="#112e42" stroke="#112e42"></path><path d="M173 421L268 531L292 400Z" fill="#277297" stroke="#277297"></path><path d="M395 0L338 113L368 135Z" fill="#112e42" stroke="#112e42"></path><path d="M368 135L338 113L289 207Z" fill="#0c2435" stroke="#0c2435"></path><path d="M289 207L235 176L221 308Z" fill="#246688" stroke="#246688"></path><path d="M268 531L332 600L382 482Z" fill="#15384f" stroke="#15384f"></path><path d="M599 103L481 77L464 224Z" fill="#0c2435" stroke="#0c2435"></path><path d="M338 113L235 176L289 207Z" fill="#0c2435" stroke="#0c2435"></path><path d="M506 600L589 600L528 522Z" fill="#297ea6" stroke="#297ea6"></path><path d="M727 600L779 483L671 467Z" fill="#0c2435" stroke="#0c2435"></path><path d="M127 376L173 421L221 308Z" fill="#1d4e6b" stroke="#1d4e6b"></path><path d="M221 308L173 421L292 400Z" fill="#1d4e6b" stroke="#1d4e6b"></path><path d="M667 292L703 211L617 195Z" fill="#081a28" stroke="#081a28"></path><path d="M617 195L599 103L464 224Z" fill="#246688" stroke="#246688"></path><path d="M824 282L703 211L667 292Z" fill="#297ea6" stroke="#297ea6"></path><path d="M802 388L667 292L671 434Z" fill="#1d4e6b" stroke="#1d4e6b"></path><path d="M708 133L599 103L617 195Z" fill="#277297" stroke="#277297"></path><path d="M173 421L178 529L268 531Z" fill="#1d4e6b" stroke="#1d4e6b"></path><path d="M268 531L164 600L332 600Z" fill="#0c2435" stroke="#0c2435"></path><path d="M69 282L127 376L221 308Z" fill="#19435d" stroke="#19435d"></path><path d="M173 421L75 511L178 529Z" fill="#277297" stroke="#277297"></path><path d="M703 211L708 133L617 195Z" fill="#15384f" stroke="#15384f"></path><path d="M727 600L671 467L628 528Z" fill="#277297" stroke="#277297"></path><path d="M671 467L779 483L671 434Z" fill="#15384f" stroke="#15384f"></path><path d="M703 211L835 221L708 133Z" fill="#112e42" stroke="#112e42"></path><path d="M338 113L204 103L235 176Z" fill="#081a28" stroke="#081a28"></path><path d="M235 176L89 228L221 308Z" fill="#297ea6" stroke="#297ea6"></path><path d="M221 0L204 103L338 113Z" fill="#1d4e6b" stroke="#1d4e6b"></path><path d="M779 483L802 388L671 434Z" fill="#112e42" stroke="#112e42"></path><path d="M591 0L477 0L481 77Z" fill="#277297" stroke="#277297"></path><path d="M481 77L395 0L368 135Z" fill="#112e42" stroke="#112e42"></path><path d="M591 0L481 77L599 103Z" fill="#081a28" stroke="#081a28"></path><path d="M477 0L395 0L481 77Z" fill="#112e42" stroke="#112e42"></path><path d="M589 600L727 600L628 528Z" fill="#1d4e6b" stroke="#1d4e6b"></path><path d="M395 0L338 0L338 113Z" fill="#277297" stroke="#277297"></path><path d="M139 600L164 600L178 529Z" fill="#19435d" stroke="#19435d"></path><path d="M178 529L164 600L268 531Z" fill="#246688" stroke="#246688"></path><path d="M802 388L824 282L667 292Z" fill="#205a7a" stroke="#205a7a"></path><path d="M691 0L591 0L599 103Z" fill="#0c2435" stroke="#0c2435"></path><path d="M105 98L89 228L235 176Z" fill="#112e42" stroke="#112e42"></path><path d="M75 511L139 600L178 529Z" fill="#246688" stroke="#246688"></path><path d="M89 228L69 282L221 308Z" fill="#1d4e6b" stroke="#1d4e6b"></path><path d="M75 511L173 421L127 376Z" fill="#205a7a" stroke="#205a7a"></path><path d="M0 392L75 511L127 376Z" fill="#0c2435" stroke="#0c2435"></path><path d="M824 282L835 221L703 211Z" fill="#19435d" stroke="#19435d"></path><path d="M708 133L691 0L599 103Z" fill="#246688" stroke="#246688"></path><path d="M727 600L782 600L779 483Z" fill="#0c2435" stroke="#0c2435"></path><path d="M900 506L900 361L802 388Z" fill="#297ea6" stroke="#297ea6"></path><path d="M802 388L900 361L824 282Z" fill="#0c2435" stroke="#0c2435"></path><path d="M824 282L900 260L835 221Z" fill="#112e42" stroke="#112e42"></path><path d="M338 0L221 0L338 113Z" fill="#1d4e6b" stroke="#1d4e6b"></path><path d="M204 103L105 98L235 176Z" fill="#112e42" stroke="#112e42"></path><path d="M818 69L691 0L708 133Z" fill="#00101c" stroke="#00101c"></path><path d="M0 210L0 306L69 282Z" fill="#1d4e6b" stroke="#1d4e6b"></path><path d="M221 0L105 98L204 103Z" fill="#19435d" stroke="#19435d"></path><path d="M900 506L802 388L779 483Z" fill="#246688" stroke="#246688"></path><path d="M69 282L0 392L127 376Z" fill="#246688" stroke="#246688"></path><path d="M0 306L0 392L69 282Z" fill="#112e42" stroke="#112e42"></path><path d="M0 210L69 282L89 228Z" fill="#1d4e6b" stroke="#1d4e6b"></path><path d="M900 361L900 260L824 282Z" fill="#277297" stroke="#277297"></path><path d="M835 221L818 69L708 133Z" fill="#1d4e6b" stroke="#1d4e6b"></path><path d="M900 164L818 69L835 221Z" fill="#205a7a" stroke="#205a7a"></path><path d="M0 108L0 210L89 228Z" fill="#246688" stroke="#246688"></path><path d="M782 600L900 506L779 483Z" fill="#297ea6" stroke="#297ea6"></path><path d="M0 392L0 520L75 511Z" fill="#15384f" stroke="#15384f"></path><path d="M75 511L0 600L139 600Z" fill="#1d4e6b" stroke="#1d4e6b"></path><path d="M900 260L900 164L835 221Z" fill="#246688" stroke="#246688"></path><path d="M221 0L92 0L105 98Z" fill="#00101c" stroke="#00101c"></path><path d="M105 98L0 108L89 228Z" fill="#081a28" stroke="#081a28"></path><path d="M900 0L817 0L818 69Z" fill="#246688" stroke="#246688"></path><path d="M818 69L817 0L691 0Z" fill="#19435d" stroke="#19435d"></path><path d="M782 600L900 600L900 506Z" fill="#15384f" stroke="#15384f"></path><path d="M0 520L0 600L75 511Z" fill="#1d4e6b" stroke="#1d4e6b"></path><path d="M92 0L0 108L105 98Z" fill="#112e42" stroke="#112e42"></path><path d="M900 164L900 100L818 69Z" fill="#19435d" stroke="#19435d"></path><path d="M900 100L900 0L818 69Z" fill="#0c2435" stroke="#0c2435"></path><path d="M92 0L0 0L0 108Z" fill="#081a28" stroke="#081a28"></path></g></svg>